<svg width="30" height="30" viewBox="0 0 30 30" fill="none" xmlns="http://www.w3.org/2000/svg">
    <path d="M15.0132 7.35691C14.7494 7.35691 14.4885 7.37036 14.2314 7.3967C13.9743 7.42303 13.7208 7.46205 13.4716 7.51328C13.2224 7.5645 12.9776 7.62793 12.7377 7.7028L12.0336 7.96133L11.3632 8.28503L10.7307 8.66994L10.1396 9.11204L9.59418 9.60747L9.09826 10.1524L8.65569 10.7428L8.27029 11.3748L7.94641 12.0444C7.84905 12.2734 7.76245 12.5082 7.68749 12.7479C7.61253 12.9876 7.54909 13.2323 7.49777 13.4812C7.44645 13.7301 7.40743 13.9834 7.381 14.2403C7.35457 14.4972 7.34131 14.7578 7.34131 15.0213C7.34131 15.2849 7.35476 15.5455 7.381 15.8024C7.40709 16.0573 7.44606 16.3107 7.49777 16.5616C7.54909 16.8115 7.61253 17.0552 7.68749 17.2949C7.76245 17.5346 7.84895 17.7693 7.94641 17.9984L8.27029 18.668L8.65569 19.2999L9.09826 19.8904L9.59418 20.4353L10.1396 20.9308L10.7307 21.3729L11.3632 21.7578L12.0336 22.0815L12.7377 22.34L13.4716 22.5295C13.7227 22.5812 13.9763 22.6201 14.2314 22.6462C14.4912 22.6727 14.7521 22.6859 15.0132 22.6859C15.2771 22.6859 15.538 22.6724 15.795 22.6462C16.0501 22.6201 16.3037 22.5812 16.5548 22.5295L17.2888 22.34L17.9929 22.0815L18.6631 21.7578L19.2958 21.3729L19.8869 20.9308L20.4324 20.4353L20.9283 19.8904L21.3709 19.2999L21.7563 18.668L22.0802 17.9984L22.3391 17.2949C22.4141 17.0552 22.4775 16.8105 22.5288 16.5616L22.6456 15.8023C22.6719 15.5454 22.6854 15.2848 22.6854 15.0213C22.6854 14.7577 22.6719 14.4971 22.6456 14.2402C22.6195 13.9854 22.5805 13.732 22.5288 13.4811C22.4775 13.2312 22.4141 12.9876 22.3391 12.7478L22.0802 12.0443L21.7563 11.3747L21.3709 10.7427L20.9283 10.1523L20.4324 9.60738L19.8869 9.11194L19.2958 8.66984L18.6631 8.28493L17.9929 7.96124L17.2888 7.70271L16.5548 7.51318L15.795 7.3966C15.5353 7.37007 15.2743 7.35679 15.0132 7.35681V7.35691ZM15.0132 10.0024C15.1877 10.0024 15.3598 10.011 15.5293 10.0281L16.0291 10.1038L16.5119 10.2268L16.9741 10.3947L17.4136 10.6052L17.8269 10.8555L18.2133 11.1436L18.5694 11.4667L18.8928 11.8225L19.1812 12.2085L19.4318 12.6223L19.6423 13.0615C19.7055 13.2118 19.7617 13.3659 19.8105 13.5234C19.8593 13.6809 19.9004 13.8419 19.9335 14.0059C19.9667 14.1698 19.9912 14.3367 20.0091 14.5061L20.0349 15.0218C20.0349 15.1961 20.0263 15.3681 20.0091 15.5376C19.992 15.7072 19.9669 15.874 19.9335 16.0379C19.9002 16.2018 19.859 16.3627 19.8105 16.5204L19.6423 16.9822L19.4318 17.4215L19.1812 17.8352L18.8928 18.2213L18.5694 18.5771L18.2133 18.9002L17.8269 19.1882L17.4136 19.4386L16.9741 19.6491L16.5119 19.817L16.0291 19.94L15.5293 20.0155C15.3578 20.0327 15.1855 20.0413 15.0132 20.0413C14.8407 20.0413 14.6684 20.0327 14.4969 20.0155L13.9971 19.94C13.833 19.9067 13.672 19.8656 13.5142 19.817L13.052 19.6491L12.6125 19.4386L12.1992 19.1882L11.8128 18.9002L11.4567 18.5771L11.1333 18.2213L10.8449 17.8352L10.5943 17.4215L10.3838 16.9822L10.2156 16.5204L10.0926 16.0379L10.017 15.5376C9.99976 15.3662 9.99117 15.1941 9.99121 15.0218C9.99117 14.8496 9.99976 14.6775 10.017 14.5061C10.034 14.3367 10.0593 14.1697 10.0926 14.0059C10.1256 13.8431 10.1667 13.6822 10.2157 13.5235L10.3839 13.0616L10.5944 12.6224L10.845 12.2085L11.1334 11.8226L11.4568 11.4668L11.8129 11.1437L12.1993 10.8556L12.6126 10.6053L13.0521 10.3948C13.2033 10.3313 13.3576 10.2752 13.5144 10.2269L13.9973 10.1039C14.1613 10.0706 14.3284 10.0452 14.497 10.0282C14.6686 10.011 14.8409 10.0025 15.0133 10.0025L15.0132 10.0024Z" fill="black"/>
    <path d="M22.9964 5.17664C22.9355 5.17665 22.8747 5.17973 22.814 5.18586C22.7534 5.19199 22.6932 5.20116 22.6334 5.21335C22.5738 5.22552 22.5147 5.2407 22.4565 5.25881C22.3983 5.27693 22.3411 5.29797 22.285 5.32186C22.2289 5.34576 22.174 5.37248 22.1205 5.40191C22.0671 5.43128 22.0151 5.46333 21.9648 5.49793C21.9145 5.53256 21.866 5.5697 21.8194 5.60922C21.7728 5.6487 21.7283 5.69049 21.6858 5.73445C21.6434 5.77843 21.6032 5.82453 21.5653 5.87256C21.5274 5.92059 21.492 5.9705 21.4591 6.0221C21.4262 6.07366 21.3959 6.12684 21.3683 6.18145C21.3406 6.23609 21.3157 6.2921 21.2936 6.34925C21.2715 6.4064 21.2523 6.46461 21.236 6.52369C21.2197 6.58276 21.2064 6.64262 21.1961 6.70303C21.1857 6.76343 21.1784 6.82431 21.174 6.88544C21.171 6.92875 21.1694 6.97215 21.1694 7.01557C21.1694 7.07691 21.1725 7.1382 21.1786 7.19923C21.1846 7.26023 21.1938 7.32089 21.2059 7.38098C21.218 7.44106 21.233 7.5005 21.251 7.55906C21.269 7.61765 21.29 7.67529 21.3137 7.73177C21.3374 7.78827 21.364 7.84354 21.3932 7.89737C21.4224 7.95119 21.4542 8.0035 21.4886 8.05412C21.523 8.1047 21.5599 8.15352 21.5991 8.20039C21.6384 8.24731 21.6799 8.29221 21.7236 8.33495C21.7673 8.37765 21.8131 8.41813 21.8608 8.45623C21.9086 8.49436 21.9581 8.53006 22.0094 8.5632C22.0607 8.59634 22.1136 8.62688 22.1679 8.6547C22.2222 8.68253 22.2778 8.70761 22.3346 8.72985C22.3913 8.75207 22.4492 8.77141 22.5078 8.78781C22.5665 8.80418 22.626 8.81759 22.686 8.82798C22.746 8.83842 22.8065 8.84583 22.8673 8.85018C22.9103 8.85326 22.9534 8.85479 22.9965 8.8548C23.0575 8.85482 23.1183 8.85177 23.179 8.84566C23.2396 8.83954 23.2998 8.83037 23.3595 8.81818C23.4192 8.806 23.4783 8.79083 23.5365 8.77272C23.5947 8.7546 23.6519 8.73355 23.708 8.70967C23.7641 8.68579 23.819 8.65911 23.8725 8.62971C23.9259 8.60031 23.9779 8.56823 24.0282 8.5336C24.0785 8.499 24.127 8.46189 24.1736 8.4224C24.2202 8.3829 24.2647 8.34107 24.3072 8.29708C24.3496 8.25309 24.3898 8.207 24.4277 8.15897C24.4655 8.11094 24.501 8.06103 24.5339 8.00943C24.5668 7.95784 24.5971 7.90462 24.6247 7.84998C24.6524 7.79534 24.6773 7.73933 24.6994 7.68218C24.7215 7.62504 24.7407 7.56682 24.757 7.50774C24.7732 7.44867 24.7866 7.38882 24.7969 7.3284C24.8073 7.26801 24.8146 7.20713 24.8189 7.14599C24.822 7.10268 24.8236 7.05928 24.8236 7.01586C24.8236 6.95456 24.8205 6.89329 24.8144 6.83229C24.8083 6.77129 24.7992 6.71064 24.7871 6.65055C24.775 6.59047 24.76 6.53103 24.742 6.47246C24.724 6.41388 24.703 6.35624 24.6793 6.29976C24.6556 6.24326 24.629 6.18799 24.5998 6.13416C24.5706 6.08034 24.5388 6.02803 24.5044 5.97741C24.47 5.92679 24.433 5.87794 24.3938 5.83104C24.3546 5.78413 24.3131 5.73922 24.2694 5.69649C24.2257 5.65378 24.1799 5.6133 24.1322 5.5752C24.0844 5.5371 24.0348 5.50143 23.9836 5.46832C23.9323 5.43518 23.8794 5.40465 23.8251 5.37683C23.7708 5.349 23.7152 5.32391 23.6584 5.30167C23.6017 5.27946 23.5438 5.26012 23.4852 5.24372C23.4265 5.22731 23.367 5.21388 23.307 5.20345C23.247 5.19305 23.1865 5.18567 23.1257 5.18134C23.0827 5.17827 23.0396 5.17673 22.9964 5.17673V5.17664Z" fill="black"/>
    <path d="M13.5586 0.027135C12.7242 0.0257894 11.9795 0.0292489 11.3106 0.0386675L9.51723 0.0867216C8.98594 0.109788 8.51655 0.139867 8.09521 0.178791C7.88454 0.198205 7.68579 0.219926 7.49742 0.243857C7.31816 0.26645 7.13939 0.292758 6.96123 0.322763C6.7916 0.351595 6.63062 0.382733 6.47627 0.416563C6.32192 0.450393 6.17448 0.486916 6.03224 0.526128C5.89319 0.564471 5.75522 0.606648 5.6185 0.652607C5.48452 0.697778 5.35382 0.74564 5.22474 0.796769C4.9666 0.899029 4.71479 1.01378 4.45549 1.14237C4.25597 1.24136 4.07164 1.34161 3.89653 1.44771C3.72142 1.55381 3.55553 1.66588 3.39311 1.78793C3.22584 1.91424 3.06462 2.04837 2.90997 2.18986C2.74832 2.3371 2.58321 2.49904 2.41165 2.68001C2.19608 2.90615 2.00877 3.11701 1.8425 3.32394C1.75937 3.42735 1.68152 3.52961 1.60819 3.63244C1.53567 3.73379 1.46634 3.83738 1.40031 3.94306C1.33495 4.04782 1.27306 4.1545 1.21386 4.26426C1.15373 4.37591 1.0969 4.4893 1.04346 4.60429C0.934084 4.83918 0.832017 5.09214 0.730142 5.3745C0.654564 5.58325 0.586888 5.79477 0.527258 6.00862C0.466421 6.22717 0.412312 6.45581 0.364066 6.7031C0.315819 6.95039 0.273724 7.21632 0.236722 7.51041C0.196849 7.83278 0.164995 8.15609 0.141191 8.48005C0.11428 8.83622 0.0919833 9.22816 0.0737227 9.66439L0.0304741 11.1149L0.00721583 12.883L0.000488281 15.0201L0.0201905 18.128L0.0816997 20.4826L0.129081 21.4024L0.188284 22.1645C0.207262 22.3699 0.231007 22.5749 0.2595 22.7792C0.28545 22.9607 0.313321 23.1195 0.343306 23.2569C0.40415 23.5363 0.476096 23.8132 0.558973 24.0869C0.638328 24.3489 0.729076 24.6074 0.83096 24.8615C0.931105 25.1104 1.04067 25.3505 1.15984 25.5816C1.27902 25.8126 1.4078 26.0346 1.5462 26.2479C1.68459 26.4611 1.8326 26.6657 1.9906 26.8614C2.14843 27.0572 2.3163 27.2447 2.49354 27.4231C2.67105 27.6018 2.85827 27.772 3.05558 27.9336C3.25522 28.0971 3.46274 28.2507 3.6774 28.394C3.87663 28.5272 4.07375 28.6491 4.27231 28.7611C4.47087 28.8731 4.67116 28.9747 4.87702 29.067C5.08289 29.1594 5.29394 29.2425 5.51441 29.3173C5.73489 29.3921 5.96458 29.4586 6.20735 29.5176C6.45012 29.5766 6.70712 29.6284 6.9791 29.6736C7.25109 29.7187 7.54182 29.7575 7.85244 29.7908C8.16306 29.8242 8.49444 29.8517 8.85052 29.8748C9.2066 29.8979 9.58719 29.9163 9.99614 29.9311C10.6279 29.954 11.5841 29.9674 12.6869 29.9725L16.2568 29.9652L19.6373 29.9179L20.9227 29.8817L21.7601 29.8387C21.9398 29.8241 22.1157 29.8068 22.2854 29.7865C22.4551 29.7662 22.6226 29.743 22.7856 29.7167C22.9486 29.6904 23.1079 29.661 23.2645 29.6283C23.4192 29.5961 23.5732 29.5601 23.7262 29.5204C23.8776 29.4819 24.027 29.4382 24.1748 29.3918C24.3226 29.3453 24.4689 29.2952 24.6143 29.2414C24.7605 29.1872 24.9055 29.1295 25.0489 29.0683C25.1934 29.0068 25.3376 28.941 25.4824 28.8712C25.7046 28.7642 25.8836 28.6749 26.0407 28.5877C26.1885 28.5066 26.3309 28.416 26.4669 28.3163C26.6011 28.2175 26.7344 28.1051 26.8882 27.9634C27.042 27.8217 27.2162 27.6511 27.432 27.4352C27.6216 27.2457 27.7815 27.0809 27.9195 26.9311C28.0574 26.7813 28.1736 26.6464 28.2755 26.5165C28.3726 26.3932 28.463 26.2648 28.5465 26.1319C28.6279 26.0021 28.7028 25.8674 28.7793 25.7179C28.8942 25.493 28.9965 25.2848 29.088 25.0838C29.177 24.8901 29.2582 24.693 29.3316 24.4929C29.4038 24.2944 29.4664 24.0925 29.5191 23.8879C29.5733 23.6775 29.62 23.4553 29.6604 23.2115C29.7007 22.9678 29.7349 22.7025 29.7645 22.4063C29.7941 22.1101 29.8192 21.7828 29.8413 21.415L29.9 20.1803L29.9503 18.6447L29.9863 16.934L30.0001 15.1453L29.968 11.632L29.9251 10.0584L29.8664 8.70734L29.7934 7.654C29.7669 7.36087 29.7382 7.13002 29.7078 6.97394C29.6742 6.80148 29.6367 6.62982 29.5952 6.45908C29.5548 6.29295 29.5105 6.12782 29.4621 5.96384C29.415 5.80407 29.3637 5.64554 29.3085 5.48839C29.2539 5.33318 29.1961 5.18123 29.1355 5.03255C29.075 4.88387 29.0094 4.73865 28.9412 4.59651C28.873 4.45436 28.8015 4.31568 28.7264 4.18016C28.6513 4.04465 28.5731 3.9125 28.4913 3.78362C28.4095 3.65474 28.3244 3.52913 28.2357 3.40688C28.1475 3.28502 28.0555 3.16595 27.9598 3.04983C27.8647 2.93436 27.7659 2.82192 27.6636 2.71269C27.5615 2.60359 27.456 2.49775 27.3471 2.39534C27.2383 2.29289 27.1261 2.1937 27.0104 2.09779C26.8942 2.00155 26.7751 1.90896 26.6532 1.82013C26.53 1.73039 26.4042 1.64443 26.2757 1.56237C26.1455 1.47913 26.0129 1.39978 25.878 1.3244C25.7408 1.24777 25.6014 1.17508 25.46 1.10643C25.2253 0.992348 25.0082 0.891148 24.7952 0.801383C24.5857 0.712296 24.3722 0.633174 24.1553 0.564283C23.9371 0.495566 23.71 0.436652 23.4601 0.385811C23.2103 0.334969 22.9378 0.292585 22.6294 0.256545C22.321 0.220504 21.9766 0.191384 21.5828 0.167165C21.1889 0.142945 20.7459 0.123915 20.2401 0.108537L18.5211 0.0700945L16.3455 0.0444337L13.5595 0.0273256L13.5586 0.027135ZM15.0055 2.6703L19.0231 2.69318L20.5387 2.72239C20.9561 2.73412 21.2746 2.74786 21.4614 2.76372C21.7045 2.78419 21.9361 2.80985 22.1577 2.84061C22.3703 2.86996 22.5818 2.90647 22.792 2.95007C22.9938 2.99236 23.1863 3.04042 23.3706 3.09462C23.5548 3.14883 23.7308 3.20957 23.8996 3.27675C24.0685 3.34393 24.23 3.41783 24.3854 3.49876C24.5395 3.57907 24.6893 3.66745 24.8342 3.76353C24.9784 3.85916 25.1173 3.96219 25.2523 4.0732C25.3872 4.1842 25.518 4.30318 25.6457 4.43043C25.7806 4.56469 25.9049 4.70146 26.0196 4.84254C26.1338 4.98275 26.2395 5.12971 26.3361 5.28262C26.4338 5.43771 26.5218 5.59868 26.5996 5.7646C26.6792 5.93375 26.7507 6.11252 26.8149 6.30252C26.8791 6.49253 26.9363 6.69445 26.9869 6.91021C27.04 7.13896 27.0844 7.36963 27.1201 7.60171C27.1586 7.84775 27.1914 8.11013 27.2193 8.39105C27.2472 8.67198 27.2703 8.97155 27.2893 9.29207C27.3045 9.54916 27.3177 9.88842 27.329 10.2891L27.3571 11.6553L27.3787 15.0018L27.3542 18.3451L27.3247 19.7073L27.2843 20.6981C27.2562 21.162 27.2266 21.552 27.1913 21.8915C27.1735 22.0612 27.1543 22.2182 27.1329 22.3656C27.1129 22.5048 27.0893 22.6434 27.0619 22.7813C27.0369 22.9072 27.0079 23.0322 26.9749 23.1562C26.9433 23.2745 26.9078 23.3917 26.8683 23.5076C26.8286 23.6241 26.7854 23.7394 26.7387 23.8532C26.6893 23.9735 26.6373 24.0926 26.5825 24.2105C26.5338 24.3157 26.4825 24.4181 26.4283 24.5177C26.3747 24.6164 26.3178 24.7132 26.2577 24.808C26.1981 24.9019 26.1356 24.9931 26.0702 25.0814C26.0053 25.1694 25.9371 25.2551 25.8659 25.3382C25.795 25.421 25.721 25.5011 25.6442 25.5785C25.5673 25.6558 25.4875 25.7305 25.4049 25.8026C25.3222 25.8747 25.2365 25.9439 25.1478 26.0106C25.0591 26.0773 24.9673 26.1413 24.8724 26.2026C24.7776 26.2639 24.6797 26.3227 24.5787 26.3789C24.4777 26.435 24.3735 26.4886 24.2664 26.5397C24.1574 26.5915 24.0468 26.64 23.9349 26.6852C23.8192 26.7318 23.7022 26.7753 23.5841 26.8154C23.3438 26.8973 23.0904 26.9692 22.8236 27.0312C22.5456 27.0954 22.2649 27.1479 21.9825 27.1886C21.8739 27.2044 21.6243 27.2193 21.2668 27.2332L19.9043 27.271L16.0417 27.3212L11.9988 27.3276L10.4111 27.3106L9.38018 27.2785L8.61996 27.2251C8.38392 27.2052 8.16441 27.1831 7.95874 27.158C7.75306 27.1329 7.56152 27.105 7.38132 27.0734C7.21055 27.0439 7.04082 27.0087 6.87242 26.9677C6.71888 26.9304 6.5669 26.8868 6.41687 26.8372C6.27223 26.7892 6.13393 26.7363 5.99938 26.6781C5.86482 26.62 5.73412 26.5563 5.60466 26.4867C5.4752 26.4171 5.34709 26.3416 5.21753 26.2592C5.11979 26.1971 5.02532 26.1343 4.9344 26.0677C4.84348 26.0011 4.75564 25.9347 4.67106 25.8651C4.58649 25.7955 4.50528 25.7238 4.42695 25.65C4.34914 25.5765 4.274 25.5003 4.20167 25.4214C4.12959 25.3428 4.06068 25.2619 3.99456 25.1781C3.92818 25.094 3.86493 25.0074 3.80493 24.9186C3.74405 24.8284 3.68645 24.7361 3.63223 24.6418C3.57745 24.5467 3.52536 24.4482 3.47586 24.3468C3.42554 24.2433 3.37858 24.1383 3.33506 24.0318C3.29085 23.9234 3.24895 23.8115 3.20954 23.696C3.13074 23.4649 3.06154 23.2188 3.00137 22.9565C2.94121 22.6941 2.88989 22.4154 2.84645 22.1184C2.80301 21.8214 2.76802 21.5066 2.74015 21.1719C2.71958 20.9254 2.70325 20.5414 2.69075 20.0571L2.66461 18.3343L2.67422 13.9426L2.74986 9.74618L2.80752 8.26765L2.8402 7.77894C2.85154 7.64842 2.86327 7.55174 2.87528 7.49369C2.91488 7.30272 2.95476 7.12502 2.99599 6.95865C3.03451 6.80171 3.07736 6.64586 3.12449 6.49128C3.16928 6.34539 3.21646 6.20872 3.26692 6.07926C3.31557 5.95386 3.3698 5.83068 3.42944 5.71011C3.48768 5.59286 3.55025 5.4806 3.6182 5.37133C3.68614 5.26205 3.75948 5.15605 3.83944 5.05062C3.9194 4.94519 4.00551 4.8411 4.09922 4.73557C4.19292 4.63005 4.29413 4.52346 4.40388 4.41361C4.5318 4.28497 4.66499 4.16168 4.80312 4.04407C4.93354 3.93312 5.06955 3.82889 5.21061 3.73182C5.3493 3.63571 5.49154 3.55017 5.63964 3.47156C5.78775 3.39294 5.94171 3.32192 6.10365 3.25801C6.2656 3.19409 6.43571 3.13691 6.61591 3.08501C6.80523 3.03191 6.99664 2.9866 7.18968 2.94921C7.39266 2.90942 7.60823 2.87472 7.83841 2.84445C8.06859 2.81418 8.31347 2.78804 8.57527 2.76535C8.75788 2.74959 9.07253 2.73556 9.48686 2.72374L10.9948 2.69395L15.0062 2.66944L15.0055 2.6703Z" fill="black"/>
</svg>
